# Blender 4.2.2 LTS
# www.blender.org
mtllib crosswalk.mtl
o Lane.017
v 2.000000 -0.120000 -2.000000
v 2.000000 -0.120000 2.000000
v -2.000000 -0.120000 -2.000000
v 2.000000 0.120000 -2.000000
v 2.000000 0.120000 2.000000
v -2.000000 0.120000 -2.000000
v -2.000000 0.120000 2.000000
v -2.000000 -0.120000 2.000000
vn -0.0000 -0.0000 1.0000
vn -1.0000 -0.0000 -0.0000
vn -0.0000 -1.0000 -0.0000
vn 1.0000 -0.0000 -0.0000
vn -0.0000 -0.0000 -1.0000
vn -0.0000 1.0000 -0.0000
vt -8.704693 -1.189644
vt -8.704693 -0.065118
vt -27.150877 -0.065118
vt -27.150877 -1.189644
vt 46.633831 -1.189644
vt 46.633831 -0.065118
vt 28.187656 -0.065118
vt 28.187656 -1.189644
vt 9.741481 -2.314171
vt 9.741482 -1.189644
vt -8.704697 -2.314171
vt 9.741482 -0.065118
vt 0.999423 0.000404
vt 0.999415 0.505146
vt 0.268326 0.505158
vt 0.268293 0.000397
s 0
usemtl Material.008
f 2/1/1 5/2/1 7/3/1 8/4/1
f 8/5/2 7/6/2 6/7/2 3/8/2
f 3/9/3 1/10/3 2/1/3 8/11/3
f 1/10/4 4/12/4 5/2/4 2/1/4
f 3/8/5 6/7/5 4/12/5 1/10/5
f 4/13/6 6/14/6 7/15/6 5/16/6
