# Blender 4.2.2 LTS
# www.blender.org
mtllib crosswalkGiveWay.mtl
o Lane.009
v 2.000000 -0.120000 -2.000000
v -2.000000 -0.120000 -2.000000
v 2.000000 -0.120000 -6.000000
v 2.000000 0.120000 -2.000000
v -2.000000 0.120000 -2.000000
v 2.000000 0.120000 -6.000000
v -2.000000 0.120000 -6.000000
v -2.000000 -0.120000 -6.000000
vn -1.0000 -0.0000 -0.0000
vn -0.0000 -0.0000 -1.0000
vn -0.0000 -1.0000 -0.0000
vn -0.0000 -0.0000 1.0000
vn 1.0000 -0.0000 -0.0000
vn -0.0000 1.0000 -0.0000
vt 0.963244 1.891175
vt 0.963244 1.007748
vt 1.630069 1.007748
vt 1.630069 1.891174
vt -1.037231 1.891174
vt -1.037231 1.007748
vt -0.370406 1.007748
vt -0.370406 1.891175
vt 0.296419 2.774602
vt 0.296419 1.891175
vt 0.963244 2.774602
vt 0.296419 1.007748
vt 0.245404 0.999152
vt 0.245337 0.000811
vt 0.999386 0.000805
vt 0.999394 0.999206
s 0
usemtl Material.011
f 2/1/1 5/2/1 7/3/1 8/4/1
f 8/5/2 7/6/2 6/7/2 3/8/2
f 3/9/3 1/10/3 2/1/3 8/11/3
f 1/10/4 4/12/4 5/2/4 2/1/4
f 3/8/5 6/7/5 4/12/5 1/10/5
f 4/13/6 6/14/6 7/15/6 5/16/6
